<?xml version="1.0" encoding="utf-8" standalone="no"?>
<!DOCTYPE svg PUBLIC "-//W3C//DTD SVG 1.1//EN"
  "http://www.w3.org/Graphics/SVG/1.1/DTD/svg11.dtd">
<svg xmlns:xlink="http://www.w3.org/1999/xlink" width="864pt" height="252pt" viewBox="0 0 864 252" xmlns="http://www.w3.org/2000/svg" version="1.1">
 <metadata>
  <rdf:RDF xmlns:dc="http://purl.org/dc/elements/1.1/" xmlns:cc="http://creativecommons.org/ns#" xmlns:rdf="http://www.w3.org/1999/02/22-rdf-syntax-ns#">
   <cc:Work>
    <dc:type rdf:resource="http://purl.org/dc/dcmitype/StillImage"/>
    <dc:date>2024-06-28T17:37:08.911566</dc:date>
    <dc:format>image/svg+xml</dc:format>
    <dc:creator>
     <cc:Agent>
      <dc:title>Matplotlib v3.7.1, https://matplotlib.org/</dc:title>
     </cc:Agent>
    </dc:creator>
   </cc:Work>
  </rdf:RDF>
 </metadata>
 <defs>
  <style type="text/css">*{stroke-linejoin: round; stroke-linecap: butt}</style>
 </defs>
 <g id="figure_1">
  <g id="patch_1">
   <path d="M 0 252 
L 864 252 
L 864 0 
L 0 0 
z
" style="fill: #ffffff"/>
  </g>
  <g id="axes_1">
   <g id="patch_2">
    <path d="M 49.641112 210.04 
L 429.090556 210.04 
L 429.090556 16.416 
L 49.641112 16.416 
z
" style="fill: #ffffff"/>
   </g>
   <g id="PolyCollection_1">
    <path d="M 66.888814 61.710144 
L 66.888814 67.481927 
L 70.373198 64.437283 
L 73.857582 66.764954 
L 77.341966 62.454834 
L 80.826351 64.383435 
L 84.310735 64.199092 
L 87.795119 59.091942 
L 91.279503 63.50016 
L 94.763887 61.376653 
L 98.248272 63.04772 
L 101.732656 67.607117 
L 105.21704 69.851731 
L 108.701424 73.482027 
L 112.185809 79.76866 
L 115.670193 87.26097 
L 119.154577 80.2197 
L 122.638961 82.623869 
L 126.123346 83.791955 
L 129.60773 89.739301 
L 133.092114 90.376424 
L 136.576498 87.980694 
L 140.060883 87.956522 
L 143.545267 89.231626 
L 147.029651 94.900221 
L 150.514035 95.399713 
L 153.99842 95.870295 
L 157.482804 95.386634 
L 160.967188 108.273539 
L 164.451572 104.907976 
L 167.935957 104.696038 
L 171.420341 111.964507 
L 174.904725 109.225491 
L 178.389109 110.023771 
L 181.873494 116.268558 
L 185.357878 116.026902 
L 188.842262 123.767941 
L 192.326646 130.313764 
L 195.811031 133.530387 
L 199.295415 134.408321 
L 202.779799 144.509697 
L 206.264183 149.123035 
L 209.748568 144.073886 
L 213.232952 171.863961 
L 216.717336 151.152983 
L 220.20172 163.889149 
L 223.686105 182.3501 
L 227.170489 182.3501 
L 230.654873 186.476156 
L 234.139257 186.32167 
L 237.623642 186.32167 
L 241.108026 194.134154 
L 244.59241 203.291052 
L 248.076794 186.172884 
L 251.561178 230.486454 
L 255.045563 204.643791 
L 258.529947 198.646646 
L 262.014331 205.488126 
L 265.498715 203.015275 
L 268.9831 201.157269 
L 272.467484 209.669541 
L 275.951868 202.332807 
L 279.436252 209.669541 
L 282.920637 212.065294 
L 286.405021 208.215924 
L 289.889405 208.215924 
L 293.373789 202.831653 
L 296.858174 202.831653 
L 300.342558 201.685071 
L 303.826942 202.385324 
L 307.311326 201.685071 
L 310.795711 202.831653 
L 314.280095 202.831653 
L 317.764479 200.959536 
L 321.248863 201.735303 
L 324.733248 201.735303 
L 328.217632 198.250441 
L 331.702016 194.814175 
L 335.1864 194.814175 
L 338.670785 194.814175 
L 342.155169 194.814175 
L 345.639553 194.814175 
L 349.123937 194.846261 
L 352.608322 196.701392 
L 356.092706 194.846261 
L 359.57709 194.846261 
L 363.061474 211.006367 
L 366.545859 212.533048 
L 370.030243 212.533048 
L 373.514627 196.148248 
L 376.999011 194.846261 
L 380.483396 211.006367 
L 383.96778 194.846261 
L 387.452164 211.006367 
L 390.936548 211.006367 
L 394.420933 194.846261 
L 397.905317 194.846261 
L 401.389701 194.846261 
L 404.874085 194.846261 
L 408.35847 211.006367 
L 411.842854 215.997348 
L 411.842854 147.958532 
L 411.842854 147.958532 
L 408.35847 148.535216 
L 404.874085 150.559237 
L 401.389701 150.559237 
L 397.905317 150.559237 
L 394.420933 150.559237 
L 390.936548 148.535216 
L 387.452164 148.535216 
L 383.96778 150.559237 
L 380.483396 148.535216 
L 376.999011 150.559237 
L 373.514627 155.224051 
L 370.030243 143.19666 
L 366.545859 143.19666 
L 363.061474 148.535216 
L 359.57709 150.559237 
L 356.092706 150.559237 
L 352.608322 144.755997 
L 349.123937 150.559237 
L 345.639553 151.876258 
L 342.155169 151.876258 
L 338.670785 151.876258 
L 335.1864 151.876258 
L 331.702016 151.876258 
L 328.217632 145.249609 
L 324.733248 144.942153 
L 321.248863 144.942153 
L 317.764479 142.93702 
L 314.280095 136.767653 
L 310.795711 136.767653 
L 307.311326 138.24068 
L 303.826942 137.980231 
L 300.342558 138.24068 
L 296.858174 136.767653 
L 293.373789 136.767653 
L 289.889405 131.012308 
L 286.405021 131.012308 
L 282.920637 130.832283 
L 279.436252 130.57844 
L 275.951868 129.100222 
L 272.467484 130.57844 
L 268.9831 130.419407 
L 265.498715 130.750001 
L 262.014331 132.833038 
L 258.529947 131.282038 
L 255.045563 133.109788 
L 251.561178 135.957789 
L 248.076794 131.356791 
L 244.59241 119.398444 
L 241.108026 115.077464 
L 237.623642 113.090665 
L 234.139257 113.090665 
L 230.654873 110.221265 
L 227.170489 110.151195 
L 223.686105 110.151195 
L 220.20172 113.074473 
L 216.717336 112.283655 
L 213.232952 110.432221 
L 209.748568 110.014844 
L 206.264183 114.152737 
L 202.779799 111.143355 
L 199.295415 112.077256 
L 195.811031 111.993138 
L 192.326646 104.210299 
L 188.842262 94.494034 
L 185.357878 97.634272 
L 181.873494 90.993369 
L 178.389109 93.42376 
L 174.904725 96.790813 
L 171.420341 96.819801 
L 167.935957 93.998523 
L 164.451572 93.819457 
L 160.967188 92.672789 
L 157.482804 90.251819 
L 153.99842 81.777915 
L 150.514035 84.432506 
L 147.029651 83.931955 
L 143.545267 79.019573 
L 140.060883 75.130709 
L 136.576498 74.71146 
L 133.092114 67.446216 
L 129.60773 68.980937 
L 126.123346 66.443557 
L 122.638961 65.598395 
L 119.154577 67.865745 
L 115.670193 66.489027 
L 112.185809 65.248757 
L 108.701424 61.355284 
L 105.21704 56.238255 
L 101.732656 50.702617 
L 98.248272 48.208596 
L 94.763887 47.706356 
L 91.279503 48.246618 
L 87.795119 42.103452 
L 84.310735 41.219201 
L 80.826351 39.569826 
L 77.341966 40.212976 
L 73.857582 48.509026 
L 70.373198 51.56156 
L 66.888814 61.710144 
z
" clip-path="url(#pd23953e6cc)" style="fill: #2c0493; fill-opacity: 0.1"/>
   </g>
   <g id="PolyCollection_2">
    <path d="M 66.888814 56.358415 
L 66.888814 64.230168 
L 70.373198 64.194486 
L 73.857582 56.580271 
L 77.341966 51.653368 
L 80.826351 49.167876 
L 84.310735 52.406904 
L 87.795119 47.685925 
L 91.279503 48.725843 
L 94.763887 54.609883 
L 98.248272 56.681506 
L 101.732656 62.54251 
L 105.21704 68.589089 
L 108.701424 64.724784 
L 112.185809 71.631038 
L 115.670193 70.508978 
L 119.154577 74.884252 
L 122.638961 79.406247 
L 126.123346 78.946037 
L 129.60773 79.767892 
L 133.092114 84.650843 
L 136.576498 85.223216 
L 140.060883 86.081456 
L 143.545267 95.337254 
L 147.029651 98.098239 
L 150.514035 100.385767 
L 153.99842 100.548709 
L 157.482804 112.427387 
L 160.967188 114.222649 
L 164.451572 120.557849 
L 167.935957 119.856527 
L 171.420341 118.887587 
L 174.904725 123.517006 
L 178.389109 122.584141 
L 181.873494 122.379674 
L 185.357878 129.285749 
L 188.842262 131.91851 
L 192.326646 132.73648 
L 195.811031 131.899603 
L 199.295415 154.809969 
L 202.779799 153.787809 
L 206.264183 151.85124 
L 209.748568 154.516192 
L 213.232952 155.666125 
L 216.717336 155.491546 
L 220.20172 162.703458 
L 223.686105 161.541589 
L 227.170489 167.707909 
L 230.654873 178.300849 
L 234.139257 167.707909 
L 237.623642 178.300849 
L 241.108026 178.300849 
L 244.59241 179.146181 
L 248.076794 178.300849 
L 251.561178 177.414018 
L 255.045563 177.544977 
L 258.529947 180.90749 
L 262.014331 177.414018 
L 265.498715 177.373788 
L 268.9831 178.314848 
L 272.467484 182.940631 
L 275.951868 189.321917 
L 279.436252 188.784334 
L 282.920637 183.860692 
L 286.405021 189.743796 
L 289.889405 185.912599 
L 293.373789 185.745902 
L 296.858174 186.041016 
L 300.342558 190.807955 
L 303.826942 186.041016 
L 307.311326 200.803371 
L 310.795711 199.272923 
L 314.280095 199.272923 
L 317.764479 190.921705 
L 321.248863 200.803371 
L 324.733248 193.6571 
L 328.217632 194.505282 
L 331.702016 194.505282 
L 335.1864 196.092448 
L 338.670785 194.505282 
L 342.155169 194.505282 
L 345.639553 196.092448 
L 349.123937 196.092448 
L 352.608322 196.092448 
L 356.092706 196.092448 
L 359.57709 196.092448 
L 363.061474 196.092448 
L 366.545859 196.092448 
L 370.030243 198.671633 
L 373.514627 198.066333 
L 376.999011 198.066333 
L 380.483396 200.177652 
L 383.96778 200.177652 
L 387.452164 200.177652 
L 390.936548 188.16298 
L 394.420933 188.16298 
L 397.905317 188.16298 
L 401.389701 183.634905 
L 404.874085 183.634905 
L 408.35847 183.634905 
L 411.842854 183.634905 
L 411.842854 143.023475 
L 411.842854 143.023475 
L 408.35847 143.023475 
L 404.874085 143.023475 
L 401.389701 143.023475 
L 397.905317 136.452823 
L 394.420933 136.452823 
L 390.936548 136.452823 
L 387.452164 135.671618 
L 383.96778 135.671618 
L 380.483396 135.671618 
L 376.999011 131.487939 
L 373.514627 131.487939 
L 370.030243 132.235712 
L 366.545859 131.245357 
L 363.061474 131.245357 
L 359.57709 131.245357 
L 356.092706 131.245357 
L 352.608322 131.245357 
L 349.123937 131.245357 
L 345.639553 131.245357 
L 342.155169 130.880609 
L 338.670785 130.880609 
L 335.1864 131.245357 
L 331.702016 130.880609 
L 328.217632 130.880609 
L 324.733248 129.319506 
L 321.248863 128.676278 
L 317.764479 128.503473 
L 314.280095 128.267215 
L 310.795711 128.267215 
L 307.311326 128.676278 
L 303.826942 127.692808 
L 300.342558 127.637368 
L 296.858174 127.692808 
L 293.373789 123.436653 
L 289.889405 122.533243 
L 286.405021 129.885979 
L 282.920637 125.031955 
L 279.436252 128.415569 
L 275.951868 127.300826 
L 272.467484 124.539346 
L 268.9831 121.394803 
L 265.498715 118.570551 
L 262.014331 117.003722 
L 258.529947 123.660446 
L 255.045563 116.191377 
L 251.561178 117.003722 
L 248.076794 112.241126 
L 244.59241 112.651889 
L 241.108026 112.241126 
L 237.623642 112.241126 
L 234.139257 113.549612 
L 230.654873 112.241126 
L 227.170489 113.549612 
L 223.686105 115.65632 
L 220.20172 104.169536 
L 216.717336 102.257687 
L 213.232952 103.411037 
L 209.748568 101.474094 
L 206.264183 98.522724 
L 202.779799 98.838637 
L 199.295415 97.267718 
L 195.811031 98.404836 
L 192.326646 97.061887 
L 188.842262 96.973237 
L 185.357878 88.943317 
L 181.873494 89.876792 
L 178.389109 89.753446 
L 174.904725 89.698719 
L 171.420341 88.044995 
L 167.935957 87.937757 
L 164.451572 89.235199 
L 160.967188 82.933805 
L 157.482804 81.361583 
L 153.99842 80.3851 
L 150.514035 82.494909 
L 147.029651 80.911212 
L 143.545267 77.468897 
L 140.060883 72.921446 
L 136.576498 72.65847 
L 133.092114 70.843029 
L 129.60773 70.626582 
L 126.123346 61.872173 
L 122.638961 66.584687 
L 119.154577 59.740021 
L 115.670193 55.859251 
L 112.185809 55.125385 
L 108.701424 56.072702 
L 105.21704 49.685739 
L 101.732656 48.613004 
L 98.248272 45.396623 
L 94.763887 44.889499 
L 91.279503 42.817811 
L 87.795119 37.105968 
L 84.310735 29.282937 
L 80.826351 33.832242 
L 77.341966 36.292046 
L 73.857582 38.979924 
L 70.373198 40.63218 
L 66.888814 56.358415 
z
" clip-path="url(#pd23953e6cc)" style="fill: #e06461; fill-opacity: 0.1"/>
   </g>
   <g id="matplotlib.axis_1">
    <g id="xtick_1">
     <g id="line2d_1">
      <defs>
       <path id="m2db7f46cc1" d="M 0 0 
L 0 3.5 
" style="stroke: #000000; stroke-width: 0.8"/>
      </defs>
      <g>
       <use xlink:href="#m2db7f46cc1" x="63.404429" y="210.04" style="stroke: #000000; stroke-width: 0.8"/>
      </g>
     </g>
     <g id="text_1">
      <!-- 0 -->
      <g transform="translate(60.223179 224.638438) scale(0.1 -0.1)">
       <defs>
        <path id="DejaVuSans-30" d="M 2034 4250 
Q 1547 4250 1301 3770 
Q 1056 3291 1056 2328 
Q 1056 1369 1301 889 
Q 1547 409 2034 409 
Q 2525 409 2770 889 
Q 3016 1369 3016 2328 
Q 3016 3291 2770 3770 
Q 2525 4250 2034 4250 
z
M 2034 4750 
Q 2819 4750 3233 4129 
Q 3647 3509 3647 2328 
Q 3647 1150 3233 529 
Q 2819 -91 2034 -91 
Q 1250 -91 836 529 
Q 422 1150 422 2328 
Q 422 3509 836 4129 
Q 1250 4750 2034 4750 
z
" transform="scale(0.015625)"/>
       </defs>
       <use xlink:href="#DejaVuSans-30"/>
      </g>
     </g>
    </g>
    <g id="xtick_2">
     <g id="line2d_2">
      <g>
       <use xlink:href="#m2db7f46cc1" x="133.092114" y="210.04" style="stroke: #000000; stroke-width: 0.8"/>
      </g>
     </g>
     <g id="text_2">
      <!-- 500 -->
      <g transform="translate(123.548364 224.638438) scale(0.1 -0.1)">
       <defs>
        <path id="DejaVuSans-35" d="M 691 4666 
L 3169 4666 
L 3169 4134 
L 1269 4134 
L 1269 2991 
Q 1406 3038 1543 3061 
Q 1681 3084 1819 3084 
Q 2600 3084 3056 2656 
Q 3513 2228 3513 1497 
Q 3513 744 3044 326 
Q 2575 -91 1722 -91 
Q 1428 -91 1123 -41 
Q 819 9 494 109 
L 494 744 
Q 775 591 1075 516 
Q 1375 441 1709 441 
Q 2250 441 2565 725 
Q 2881 1009 2881 1497 
Q 2881 1984 2565 2268 
Q 2250 2553 1709 2553 
Q 1456 2553 1204 2497 
Q 953 2441 691 2322 
L 691 4666 
z
" transform="scale(0.015625)"/>
       </defs>
       <use xlink:href="#DejaVuSans-35"/>
       <use xlink:href="#DejaVuSans-30" x="63.623047"/>
       <use xlink:href="#DejaVuSans-30" x="127.246094"/>
      </g>
     </g>
    </g>
    <g id="xtick_3">
     <g id="line2d_3">
      <g>
       <use xlink:href="#m2db7f46cc1" x="202.779799" y="210.04" style="stroke: #000000; stroke-width: 0.8"/>
      </g>
     </g>
     <g id="text_3">
      <!-- 1000 -->
      <g transform="translate(190.054799 224.638438) scale(0.1 -0.1)">
       <defs>
        <path id="DejaVuSans-31" d="M 794 531 
L 1825 531 
L 1825 4091 
L 703 3866 
L 703 4441 
L 1819 4666 
L 2450 4666 
L 2450 531 
L 3481 531 
L 3481 0 
L 794 0 
L 794 531 
z
" transform="scale(0.015625)"/>
       </defs>
       <use xlink:href="#DejaVuSans-31"/>
       <use xlink:href="#DejaVuSans-30" x="63.623047"/>
       <use xlink:href="#DejaVuSans-30" x="127.246094"/>
       <use xlink:href="#DejaVuSans-30" x="190.869141"/>
      </g>
     </g>
    </g>
    <g id="xtick_4">
     <g id="line2d_4">
      <g>
       <use xlink:href="#m2db7f46cc1" x="272.467484" y="210.04" style="stroke: #000000; stroke-width: 0.8"/>
      </g>
     </g>
     <g id="text_4">
      <!-- 1500 -->
      <g transform="translate(259.742484 224.638438) scale(0.1 -0.1)">
       <use xlink:href="#DejaVuSans-31"/>
       <use xlink:href="#DejaVuSans-35" x="63.623047"/>
       <use xlink:href="#DejaVuSans-30" x="127.246094"/>
       <use xlink:href="#DejaVuSans-30" x="190.869141"/>
      </g>
     </g>
    </g>
    <g id="xtick_5">
     <g id="line2d_5">
      <g>
       <use xlink:href="#m2db7f46cc1" x="342.155169" y="210.04" style="stroke: #000000; stroke-width: 0.8"/>
      </g>
     </g>
     <g id="text_5">
      <!-- 2000 -->
      <g transform="translate(329.430169 224.638438) scale(0.1 -0.1)">
       <defs>
        <path id="DejaVuSans-32" d="M 1228 531 
L 3431 531 
L 3431 0 
L 469 0 
L 469 531 
Q 828 903 1448 1529 
Q 2069 2156 2228 2338 
Q 2531 2678 2651 2914 
Q 2772 3150 2772 3378 
Q 2772 3750 2511 3984 
Q 2250 4219 1831 4219 
Q 1534 4219 1204 4116 
Q 875 4013 500 3803 
L 500 4441 
Q 881 4594 1212 4672 
Q 1544 4750 1819 4750 
Q 2544 4750 2975 4387 
Q 3406 4025 3406 3419 
Q 3406 3131 3298 2873 
Q 3191 2616 2906 2266 
Q 2828 2175 2409 1742 
Q 1991 1309 1228 531 
z
" transform="scale(0.015625)"/>
       </defs>
       <use xlink:href="#DejaVuSans-32"/>
       <use xlink:href="#DejaVuSans-30" x="63.623047"/>
       <use xlink:href="#DejaVuSans-30" x="127.246094"/>
       <use xlink:href="#DejaVuSans-30" x="190.869141"/>
      </g>
     </g>
    </g>
    <g id="xtick_6">
     <g id="line2d_6">
      <g>
       <use xlink:href="#m2db7f46cc1" x="411.842854" y="210.04" style="stroke: #000000; stroke-width: 0.8"/>
      </g>
     </g>
     <g id="text_6">
      <!-- 2500 -->
      <g transform="translate(399.117854 224.638438) scale(0.1 -0.1)">
       <use xlink:href="#DejaVuSans-32"/>
       <use xlink:href="#DejaVuSans-35" x="63.623047"/>
       <use xlink:href="#DejaVuSans-30" x="127.246094"/>
       <use xlink:href="#DejaVuSans-30" x="190.869141"/>
      </g>
     </g>
    </g>
    <g id="text_7">
     <!-- Tuning Steps -->
     <g transform="translate(207.41974 238.316563) scale(0.1 -0.1)">
      <defs>
       <path id="DejaVuSans-54" d="M -19 4666 
L 3928 4666 
L 3928 4134 
L 2272 4134 
L 2272 0 
L 1638 0 
L 1638 4134 
L -19 4134 
L -19 4666 
z
" transform="scale(0.015625)"/>
       <path id="DejaVuSans-75" d="M 544 1381 
L 544 3500 
L 1119 3500 
L 1119 1403 
Q 1119 906 1312 657 
Q 1506 409 1894 409 
Q 2359 409 2629 706 
Q 2900 1003 2900 1516 
L 2900 3500 
L 3475 3500 
L 3475 0 
L 2900 0 
L 2900 538 
Q 2691 219 2414 64 
Q 2138 -91 1772 -91 
Q 1169 -91 856 284 
Q 544 659 544 1381 
z
M 1991 3584 
L 1991 3584 
z
" transform="scale(0.015625)"/>
       <path id="DejaVuSans-6e" d="M 3513 2113 
L 3513 0 
L 2938 0 
L 2938 2094 
Q 2938 2591 2744 2837 
Q 2550 3084 2163 3084 
Q 1697 3084 1428 2787 
Q 1159 2491 1159 1978 
L 1159 0 
L 581 0 
L 581 3500 
L 1159 3500 
L 1159 2956 
Q 1366 3272 1645 3428 
Q 1925 3584 2291 3584 
Q 2894 3584 3203 3211 
Q 3513 2838 3513 2113 
z
" transform="scale(0.015625)"/>
       <path id="DejaVuSans-69" d="M 603 3500 
L 1178 3500 
L 1178 0 
L 603 0 
L 603 3500 
z
M 603 4863 
L 1178 4863 
L 1178 4134 
L 603 4134 
L 603 4863 
z
" transform="scale(0.015625)"/>
       <path id="DejaVuSans-67" d="M 2906 1791 
Q 2906 2416 2648 2759 
Q 2391 3103 1925 3103 
Q 1463 3103 1205 2759 
Q 947 2416 947 1791 
Q 947 1169 1205 825 
Q 1463 481 1925 481 
Q 2391 481 2648 825 
Q 2906 1169 2906 1791 
z
M 3481 434 
Q 3481 -459 3084 -895 
Q 2688 -1331 1869 -1331 
Q 1566 -1331 1297 -1286 
Q 1028 -1241 775 -1147 
L 775 -588 
Q 1028 -725 1275 -790 
Q 1522 -856 1778 -856 
Q 2344 -856 2625 -561 
Q 2906 -266 2906 331 
L 2906 616 
Q 2728 306 2450 153 
Q 2172 0 1784 0 
Q 1141 0 747 490 
Q 353 981 353 1791 
Q 353 2603 747 3093 
Q 1141 3584 1784 3584 
Q 2172 3584 2450 3431 
Q 2728 3278 2906 2969 
L 2906 3500 
L 3481 3500 
L 3481 434 
z
" transform="scale(0.015625)"/>
       <path id="DejaVuSans-20" transform="scale(0.015625)"/>
       <path id="DejaVuSans-53" d="M 3425 4513 
L 3425 3897 
Q 3066 4069 2747 4153 
Q 2428 4238 2131 4238 
Q 1616 4238 1336 4038 
Q 1056 3838 1056 3469 
Q 1056 3159 1242 3001 
Q 1428 2844 1947 2747 
L 2328 2669 
Q 3034 2534 3370 2195 
Q 3706 1856 3706 1288 
Q 3706 609 3251 259 
Q 2797 -91 1919 -91 
Q 1588 -91 1214 -16 
Q 841 59 441 206 
L 441 856 
Q 825 641 1194 531 
Q 1563 422 1919 422 
Q 2459 422 2753 634 
Q 3047 847 3047 1241 
Q 3047 1584 2836 1778 
Q 2625 1972 2144 2069 
L 1759 2144 
Q 1053 2284 737 2584 
Q 422 2884 422 3419 
Q 422 4038 858 4394 
Q 1294 4750 2059 4750 
Q 2388 4750 2728 4690 
Q 3069 4631 3425 4513 
z
" transform="scale(0.015625)"/>
       <path id="DejaVuSans-74" d="M 1172 4494 
L 1172 3500 
L 2356 3500 
L 2356 3053 
L 1172 3053 
L 1172 1153 
Q 1172 725 1289 603 
Q 1406 481 1766 481 
L 2356 481 
L 2356 0 
L 1766 0 
Q 1100 0 847 248 
Q 594 497 594 1153 
L 594 3053 
L 172 3053 
L 172 3500 
L 594 3500 
L 594 4494 
L 1172 4494 
z
" transform="scale(0.015625)"/>
       <path id="DejaVuSans-65" d="M 3597 1894 
L 3597 1613 
L 953 1613 
Q 991 1019 1311 708 
Q 1631 397 2203 397 
Q 2534 397 2845 478 
Q 3156 559 3463 722 
L 3463 178 
Q 3153 47 2828 -22 
Q 2503 -91 2169 -91 
Q 1331 -91 842 396 
Q 353 884 353 1716 
Q 353 2575 817 3079 
Q 1281 3584 2069 3584 
Q 2775 3584 3186 3129 
Q 3597 2675 3597 1894 
z
M 3022 2063 
Q 3016 2534 2758 2815 
Q 2500 3097 2075 3097 
Q 1594 3097 1305 2825 
Q 1016 2553 972 2059 
L 3022 2063 
z
" transform="scale(0.015625)"/>
       <path id="DejaVuSans-70" d="M 1159 525 
L 1159 -1331 
L 581 -1331 
L 581 3500 
L 1159 3500 
L 1159 2969 
Q 1341 3281 1617 3432 
Q 1894 3584 2278 3584 
Q 2916 3584 3314 3078 
Q 3713 2572 3713 1747 
Q 3713 922 3314 415 
Q 2916 -91 2278 -91 
Q 1894 -91 1617 61 
Q 1341 213 1159 525 
z
M 3116 1747 
Q 3116 2381 2855 2742 
Q 2594 3103 2138 3103 
Q 1681 3103 1420 2742 
Q 1159 2381 1159 1747 
Q 1159 1113 1420 752 
Q 1681 391 2138 391 
Q 2594 391 2855 752 
Q 3116 1113 3116 1747 
z
" transform="scale(0.015625)"/>
       <path id="DejaVuSans-73" d="M 2834 3397 
L 2834 2853 
Q 2591 2978 2328 3040 
Q 2066 3103 1784 3103 
Q 1356 3103 1142 2972 
Q 928 2841 928 2578 
Q 928 2378 1081 2264 
Q 1234 2150 1697 2047 
L 1894 2003 
Q 2506 1872 2764 1633 
Q 3022 1394 3022 966 
Q 3022 478 2636 193 
Q 2250 -91 1575 -91 
Q 1294 -91 989 -36 
Q 684 19 347 128 
L 347 722 
Q 666 556 975 473 
Q 1284 391 1588 391 
Q 1994 391 2212 530 
Q 2431 669 2431 922 
Q 2431 1156 2273 1281 
Q 2116 1406 1581 1522 
L 1381 1569 
Q 847 1681 609 1914 
Q 372 2147 372 2553 
Q 372 3047 722 3315 
Q 1072 3584 1716 3584 
Q 2034 3584 2315 3537 
Q 2597 3491 2834 3397 
z
" transform="scale(0.015625)"/>
      </defs>
      <use xlink:href="#DejaVuSans-54"/>
      <use xlink:href="#DejaVuSans-75" x="45.958984"/>
      <use xlink:href="#DejaVuSans-6e" x="109.337891"/>
      <use xlink:href="#DejaVuSans-69" x="172.716797"/>
      <use xlink:href="#DejaVuSans-6e" x="200.5"/>
      <use xlink:href="#DejaVuSans-67" x="263.878906"/>
      <use xlink:href="#DejaVuSans-20" x="327.355469"/>
      <use xlink:href="#DejaVuSans-53" x="359.142578"/>
      <use xlink:href="#DejaVuSans-74" x="422.619141"/>
      <use xlink:href="#DejaVuSans-65" x="461.828125"/>
      <use xlink:href="#DejaVuSans-70" x="523.351562"/>
      <use xlink:href="#DejaVuSans-73" x="586.828125"/>
     </g>
    </g>
   </g>
   <g id="matplotlib.axis_2">
    <g id="ytick_1">
     <g id="line2d_7">
      <defs>
       <path id="mf57bc327bd" d="M 0 0 
L -3.5 0 
" style="stroke: #000000; stroke-width: 0.8"/>
      </defs>
      <g>
       <use xlink:href="#mf57bc327bd" x="49.641112" y="195.617501" style="stroke: #000000; stroke-width: 0.8"/>
      </g>
     </g>
     <g id="text_8">
      <!-- $\mathdefault{2^{-5}}$ -->
      <g transform="translate(25.541112 199.416719) scale(0.1 -0.1)">
       <defs>
        <path id="DejaVuSans-2212" d="M 678 2272 
L 4684 2272 
L 4684 1741 
L 678 1741 
L 678 2272 
z
" transform="scale(0.015625)"/>
       </defs>
       <use xlink:href="#DejaVuSans-32" transform="translate(0 0.684375)"/>
       <use xlink:href="#DejaVuSans-2212" transform="translate(64.580078 38.965625) scale(0.7)"/>
       <use xlink:href="#DejaVuSans-35" transform="translate(123.232422 38.965625) scale(0.7)"/>
      </g>
     </g>
    </g>
    <g id="ytick_2">
     <g id="line2d_8">
      <g>
       <use xlink:href="#mf57bc327bd" x="49.641112" y="150.817125" style="stroke: #000000; stroke-width: 0.8"/>
      </g>
     </g>
     <g id="text_9">
      <!-- $\mathdefault{2^{-4}}$ -->
      <g transform="translate(25.541112 154.616344) scale(0.1 -0.1)">
       <defs>
        <path id="DejaVuSans-34" d="M 2419 4116 
L 825 1625 
L 2419 1625 
L 2419 4116 
z
M 2253 4666 
L 3047 4666 
L 3047 1625 
L 3713 1625 
L 3713 1100 
L 3047 1100 
L 3047 0 
L 2419 0 
L 2419 1100 
L 313 1100 
L 313 1709 
L 2253 4666 
z
" transform="scale(0.015625)"/>
       </defs>
       <use xlink:href="#DejaVuSans-32" transform="translate(0 0.684375)"/>
       <use xlink:href="#DejaVuSans-2212" transform="translate(64.580078 38.965625) scale(0.7)"/>
       <use xlink:href="#DejaVuSans-34" transform="translate(123.232422 38.965625) scale(0.7)"/>
      </g>
     </g>
    </g>
    <g id="ytick_3">
     <g id="line2d_9">
      <g>
       <use xlink:href="#mf57bc327bd" x="49.641112" y="106.01675" style="stroke: #000000; stroke-width: 0.8"/>
      </g>
     </g>
     <g id="text_10">
      <!-- $\mathdefault{2^{-3}}$ -->
      <g transform="translate(25.541112 109.815969) scale(0.1 -0.1)">
       <defs>
        <path id="DejaVuSans-33" d="M 2597 2516 
Q 3050 2419 3304 2112 
Q 3559 1806 3559 1356 
Q 3559 666 3084 287 
Q 2609 -91 1734 -91 
Q 1441 -91 1130 -33 
Q 819 25 488 141 
L 488 750 
Q 750 597 1062 519 
Q 1375 441 1716 441 
Q 2309 441 2620 675 
Q 2931 909 2931 1356 
Q 2931 1769 2642 2001 
Q 2353 2234 1838 2234 
L 1294 2234 
L 1294 2753 
L 1863 2753 
Q 2328 2753 2575 2939 
Q 2822 3125 2822 3475 
Q 2822 3834 2567 4026 
Q 2313 4219 1838 4219 
Q 1578 4219 1281 4162 
Q 984 4106 628 3988 
L 628 4550 
Q 988 4650 1302 4700 
Q 1616 4750 1894 4750 
Q 2613 4750 3031 4423 
Q 3450 4097 3450 3541 
Q 3450 3153 3228 2886 
Q 3006 2619 2597 2516 
z
" transform="scale(0.015625)"/>
       </defs>
       <use xlink:href="#DejaVuSans-32" transform="translate(0 0.765625)"/>
       <use xlink:href="#DejaVuSans-2212" transform="translate(64.580078 39.046875) scale(0.7)"/>
       <use xlink:href="#DejaVuSans-33" transform="translate(123.232422 39.046875) scale(0.7)"/>
      </g>
     </g>
    </g>
    <g id="ytick_4">
     <g id="line2d_10">
      <g>
       <use xlink:href="#mf57bc327bd" x="49.641112" y="61.216375" style="stroke: #000000; stroke-width: 0.8"/>
      </g>
     </g>
     <g id="text_11">
      <!-- $\mathdefault{2^{-2}}$ -->
      <g transform="translate(25.541112 65.015594) scale(0.1 -0.1)">
       <use xlink:href="#DejaVuSans-32" transform="translate(0 0.765625)"/>
       <use xlink:href="#DejaVuSans-2212" transform="translate(64.580078 39.046875) scale(0.7)"/>
       <use xlink:href="#DejaVuSans-32" transform="translate(123.232422 39.046875) scale(0.7)"/>
      </g>
     </g>
    </g>
    <g id="ytick_5">
     <g id="line2d_11">
      <g>
       <use xlink:href="#mf57bc327bd" x="49.641112" y="16.416" style="stroke: #000000; stroke-width: 0.8"/>
      </g>
     </g>
     <g id="text_12">
      <!-- $\mathdefault{2^{-1}}$ -->
      <g transform="translate(25.541112 20.215219) scale(0.1 -0.1)">
       <use xlink:href="#DejaVuSans-32" transform="translate(0 0.684375)"/>
       <use xlink:href="#DejaVuSans-2212" transform="translate(64.580078 38.965625) scale(0.7)"/>
       <use xlink:href="#DejaVuSans-31" transform="translate(123.232422 38.965625) scale(0.7)"/>
      </g>
     </g>
    </g>
    <g id="text_13">
     <!-- $\Delta$ to Best LR -->
     <g transform="translate(19.461424 143.778) rotate(-90) scale(0.1 -0.1)">
      <defs>
       <path id="DejaVuSans-394" d="M 2188 4044 
L 906 525 
L 3472 525 
L 2188 4044 
z
M 50 0 
L 1831 4666 
L 2547 4666 
L 4325 0 
L 50 0 
z
" transform="scale(0.015625)"/>
       <path id="DejaVuSans-6f" d="M 1959 3097 
Q 1497 3097 1228 2736 
Q 959 2375 959 1747 
Q 959 1119 1226 758 
Q 1494 397 1959 397 
Q 2419 397 2687 759 
Q 2956 1122 2956 1747 
Q 2956 2369 2687 2733 
Q 2419 3097 1959 3097 
z
M 1959 3584 
Q 2709 3584 3137 3096 
Q 3566 2609 3566 1747 
Q 3566 888 3137 398 
Q 2709 -91 1959 -91 
Q 1206 -91 779 398 
Q 353 888 353 1747 
Q 353 2609 779 3096 
Q 1206 3584 1959 3584 
z
" transform="scale(0.015625)"/>
       <path id="DejaVuSans-42" d="M 1259 2228 
L 1259 519 
L 2272 519 
Q 2781 519 3026 730 
Q 3272 941 3272 1375 
Q 3272 1813 3026 2020 
Q 2781 2228 2272 2228 
L 1259 2228 
z
M 1259 4147 
L 1259 2741 
L 2194 2741 
Q 2656 2741 2882 2914 
Q 3109 3088 3109 3444 
Q 3109 3797 2882 3972 
Q 2656 4147 2194 4147 
L 1259 4147 
z
M 628 4666 
L 2241 4666 
Q 2963 4666 3353 4366 
Q 3744 4066 3744 3513 
Q 3744 3084 3544 2831 
Q 3344 2578 2956 2516 
Q 3422 2416 3680 2098 
Q 3938 1781 3938 1306 
Q 3938 681 3513 340 
Q 3088 0 2303 0 
L 628 0 
L 628 4666 
z
" transform="scale(0.015625)"/>
       <path id="DejaVuSans-4c" d="M 628 4666 
L 1259 4666 
L 1259 531 
L 3531 531 
L 3531 0 
L 628 0 
L 628 4666 
z
" transform="scale(0.015625)"/>
       <path id="DejaVuSans-52" d="M 2841 2188 
Q 3044 2119 3236 1894 
Q 3428 1669 3622 1275 
L 4263 0 
L 3584 0 
L 2988 1197 
Q 2756 1666 2539 1819 
Q 2322 1972 1947 1972 
L 1259 1972 
L 1259 0 
L 628 0 
L 628 4666 
L 2053 4666 
Q 2853 4666 3247 4331 
Q 3641 3997 3641 3322 
Q 3641 2881 3436 2590 
Q 3231 2300 2841 2188 
z
M 1259 4147 
L 1259 2491 
L 2053 2491 
Q 2509 2491 2742 2702 
Q 2975 2913 2975 3322 
Q 2975 3731 2742 3939 
Q 2509 4147 2053 4147 
L 1259 4147 
z
" transform="scale(0.015625)"/>
      </defs>
      <use xlink:href="#DejaVuSans-394" transform="translate(0 0.09375)"/>
      <use xlink:href="#DejaVuSans-20" transform="translate(68.408203 0.09375)"/>
      <use xlink:href="#DejaVuSans-74" transform="translate(100.195312 0.09375)"/>
      <use xlink:href="#DejaVuSans-6f" transform="translate(139.404297 0.09375)"/>
      <use xlink:href="#DejaVuSans-20" transform="translate(200.585938 0.09375)"/>
      <use xlink:href="#DejaVuSans-42" transform="translate(232.373047 0.09375)"/>
      <use xlink:href="#DejaVuSans-65" transform="translate(300.976562 0.09375)"/>
      <use xlink:href="#DejaVuSans-73" transform="translate(362.5 0.09375)"/>
      <use xlink:href="#DejaVuSans-74" transform="translate(414.599609 0.09375)"/>
      <use xlink:href="#DejaVuSans-20" transform="translate(453.808594 0.09375)"/>
      <use xlink:href="#DejaVuSans-4c" transform="translate(485.595703 0.09375)"/>
      <use xlink:href="#DejaVuSans-52" transform="translate(541.308594 0.09375)"/>
     </g>
    </g>
   </g>
   <g id="line2d_12">
    <path d="M 66.888814 64.531629 
L 70.373198 57.679325 
L 73.857582 56.994564 
L 77.341966 50.381844 
L 80.826351 50.793086 
L 84.310735 51.693189 
L 87.795119 50.04113 
L 91.279503 55.424447 
L 94.763887 54.180758 
L 98.248272 55.203227 
L 101.732656 58.603774 
L 105.21704 62.687234 
L 108.701424 67.134663 
L 112.185809 72.101825 
L 115.670193 76.0441 
L 119.154577 73.748005 
L 122.638961 73.552146 
L 126.123346 74.537429 
L 129.60773 78.530302 
L 133.092114 77.899728 
L 136.576498 81.006151 
L 140.060883 81.225992 
L 143.545267 83.924121 
L 147.029651 89.183702 
L 150.514035 89.683769 
L 153.99842 88.440783 
L 157.482804 92.768248 
L 160.967188 100.003602 
L 164.451572 99.126214 
L 167.935957 99.126214 
L 171.420341 103.949581 
L 174.904725 102.709576 
L 178.389109 101.192293 
L 181.873494 102.403257 
L 185.357878 106.178536 
L 188.842262 107.487609 
L 192.326646 115.953089 
L 195.811031 121.868796 
L 199.295415 122.283113 
L 202.779799 125.696885 
L 206.264183 129.301068 
L 209.748568 124.82639 
L 213.232952 134.108732 
L 216.717336 128.8394 
L 220.20172 133.61155 
L 223.686105 136.653678 
L 227.170489 136.653678 
L 230.654873 137.700393 
L 234.139257 139.846093 
L 237.623642 139.846093 
L 241.108026 143.204422 
L 244.59241 148.593648 
L 248.076794 153.119827 
L 251.561178 167.291647 
L 255.045563 159.447697 
L 258.529947 156.558578 
L 262.014331 159.447697 
L 265.498715 157.268841 
L 268.9831 156.558578 
L 272.467484 158.71322 
L 275.951868 155.856035 
L 279.436252 158.71322 
L 282.920637 159.447697 
L 286.405021 158.71322 
L 289.889405 158.71322 
L 293.373789 161.702575 
L 296.858174 161.702575 
L 300.342558 162.472028 
L 303.826942 162.472028 
L 307.311326 162.472028 
L 310.795711 161.702575 
L 314.280095 161.702575 
L 317.764479 165.644851 
L 321.248863 167.291647 
L 324.733248 167.291647 
L 328.217632 166.463004 
L 331.702016 169.843292 
L 335.1864 169.843292 
L 338.670785 169.843292 
L 342.155169 169.843292 
L 345.639553 169.843292 
L 349.123937 168.981503 
L 352.608322 165.644851 
L 356.092706 168.981503 
L 359.57709 168.981503 
L 363.061474 172.499828 
L 366.545859 168.981503 
L 370.030243 168.981503 
L 373.514627 172.499828 
L 376.999011 168.981503 
L 380.483396 172.499828 
L 383.96778 168.981503 
L 387.452164 172.499828 
L 390.936548 172.499828 
L 394.420933 168.981503 
L 397.905317 168.981503 
L 401.389701 168.981503 
L 404.874085 168.981503 
L 408.35847 172.499828 
L 411.842854 173.410171 
" clip-path="url(#pd23953e6cc)" style="fill: none; stroke: #2c0493; stroke-width: 1.5; stroke-linecap: square"/>
   </g>
   <g id="line2d_13">
    <path d="M 66.888814 60.174527 
L 70.373198 51.345511 
L 73.857582 47.182843 
L 77.341966 43.517414 
L 80.826351 41.046283 
L 84.310735 39.816252 
L 87.795119 42.179706 
L 91.279503 45.704345 
L 94.763887 49.567128 
L 98.248272 50.793086 
L 101.732656 55.203227 
L 105.21704 58.448778 
L 108.701424 60.254075 
L 112.185809 62.852748 
L 115.670193 62.769938 
L 119.154577 66.869591 
L 122.638961 72.678054 
L 126.123346 69.846947 
L 129.60773 75.03576 
L 133.092114 77.37891 
L 136.576498 78.635998 
L 140.060883 79.167088 
L 143.545267 85.787552 
L 147.029651 88.935112 
L 150.514035 90.823268 
L 153.99842 89.683769 
L 157.482804 95.045718 
L 160.967188 96.703073 
L 164.451572 103.017354 
L 167.935957 101.946483 
L 171.420341 101.64375 
L 174.904725 104.420786 
L 178.389109 104.106268 
L 181.873494 104.106268 
L 185.357878 106.01675 
L 188.842262 112.112359 
L 192.326646 112.468466 
L 195.811031 113.006333 
L 199.295415 119.836135 
L 202.779799 120.641545 
L 206.264183 119.836135 
L 209.748568 122.700104 
L 213.232952 124.3955 
L 216.717336 123.542243 
L 220.20172 127.025013 
L 223.686105 134.609767 
L 227.170489 135.114717 
L 230.654873 137.174917 
L 234.139257 135.114717 
L 237.623642 137.174917 
L 241.108026 137.174917 
L 244.59241 137.700393 
L 248.076794 137.174917 
L 251.561178 140.393836 
L 255.045563 139.846093 
L 258.529947 146.142804 
L 262.014331 140.393836 
L 265.498715 141.503448 
L 268.9831 143.781508 
L 272.467484 147.35661 
L 275.951868 151.141102 
L 279.436252 151.793969 
L 282.920637 147.97217 
L 286.405021 153.119827 
L 289.889405 146.746858 
L 293.373789 147.35661 
L 296.858174 150.494764 
L 300.342558 151.793969 
L 303.826942 150.494764 
L 307.311326 155.161047 
L 310.795711 154.473453 
L 314.280095 154.473453 
L 317.764479 152.453498 
L 321.248863 155.161047 
L 324.733248 153.793096 
L 328.217632 155.161047 
L 331.702016 155.161047 
L 335.1864 155.856035 
L 338.670785 155.161047 
L 342.155169 155.161047 
L 345.639553 155.856035 
L 349.123937 155.856035 
L 352.608322 155.856035 
L 356.092706 155.856035 
L 359.57709 155.856035 
L 363.061474 155.856035 
L 366.545859 155.856035 
L 370.030243 157.268841 
L 373.514627 156.558578 
L 376.999011 156.558578 
L 380.483396 160.190617 
L 383.96778 160.190617 
L 387.452164 160.190617 
L 390.936548 157.268841 
L 394.420933 157.268841 
L 397.905317 157.268841 
L 401.389701 160.190617 
L 404.874085 160.190617 
L 408.35847 160.190617 
L 411.842854 160.190617 
" clip-path="url(#pd23953e6cc)" style="fill: none; stroke: #e06461; stroke-width: 1.5; stroke-linecap: square"/>
   </g>
   <g id="line2d_14">
    <path d="M 49.641112 97.265105 
L 429.090556 97.265105 
" clip-path="url(#pd23953e6cc)" style="fill: none; stroke-dasharray: 1.5,2.475; stroke-dashoffset: 0; stroke: #000000; stroke-width: 1.5"/>
   </g>
   <g id="line2d_15">
    <path clip-path="url(#pd23953e6cc)" style="fill: none; stroke: #000000; stroke-width: 1.5; stroke-linecap: square"/>
   </g>
   <g id="line2d_16">
    <path d="M 49.641112 156.853036 
L 429.090556 156.853036 
" clip-path="url(#pd23953e6cc)" style="fill: none; stroke-dasharray: 5.55,2.4; stroke-dashoffset: 0; stroke: #000000; stroke-width: 1.5"/>
   </g>
   <g id="patch_3">
    <path d="M 49.641112 210.04 
L 49.641112 16.416 
" style="fill: none; stroke: #000000; stroke-width: 0.8; stroke-linejoin: miter; stroke-linecap: square"/>
   </g>
   <g id="patch_4">
    <path d="M 429.090556 210.04 
L 429.090556 16.416 
" style="fill: none; stroke: #000000; stroke-width: 0.8; stroke-linejoin: miter; stroke-linecap: square"/>
   </g>
   <g id="patch_5">
    <path d="M 49.641112 210.04 
L 429.090556 210.04 
" style="fill: none; stroke: #000000; stroke-width: 0.8; stroke-linejoin: miter; stroke-linecap: square"/>
   </g>
   <g id="patch_6">
    <path d="M 49.641112 16.416 
L 429.090556 16.416 
" style="fill: none; stroke: #000000; stroke-width: 0.8; stroke-linejoin: miter; stroke-linecap: square"/>
   </g>
  </g>
  <g id="axes_2">
   <g id="patch_7">
    <path d="M 473.750556 210.04 
L 853.2 210.04 
L 853.2 16.416 
L 473.750556 16.416 
z
" style="fill: #ffffff"/>
   </g>
   <g id="PolyCollection_3">
    <path d="M 490.998258 147.400298 
L 490.998258 177.214975 
L 494.482642 189.100357 
L 497.967026 199.803299 
L 501.451411 230.399264 
L 504.935795 247.590724 
L 508.420179 230.916499 
L 511.904563 219.42529 
L 515.388947 169.926771 
L 518.873332 199.027282 
L 522.357716 150.307554 
L 525.8421 172.396877 
L 529.326484 166.965214 
L 532.810869 140.135734 
L 536.295253 130.35346 
L 539.779637 118.315636 
L 543.264021 98.818692 
L 546.748406 96.20616 
L 550.23279 92.775933 
L 553.717174 105.015932 
L 557.201558 100.398778 
L 560.685943 92.349698 
L 564.170327 83.867679 
L 567.654711 88.021708 
L 571.139095 90.207887 
L 574.62348 84.141875 
L 578.107864 85.049387 
L 581.592248 83.058626 
L 585.076632 78.060741 
L 588.561017 74.381535 
L 592.045401 77.320397 
L 595.529785 74.256747 
L 599.014169 75.505227 
L 602.498554 74.523965 
L 605.982938 66.993588 
L 609.467322 72.364253 
L 612.951706 71.699163 
L 616.436091 63.817092 
L 619.920475 65.961952 
L 623.404859 68.747159 
L 626.889243 68.465204 
L 630.373628 68.379857 
L 633.858012 68.061192 
L 637.342396 68.192115 
L 640.82678 67.629168 
L 644.311165 65.153825 
L 647.795549 65.428233 
L 651.279933 65.604613 
L 654.764317 65.914063 
L 658.248702 65.949393 
L 661.733086 65.865123 
L 665.21747 65.721483 
L 668.701854 63.505403 
L 672.186238 63.054671 
L 675.670623 63.760756 
L 679.155007 64.19929 
L 682.639391 65.048981 
L 686.123775 64.821578 
L 689.60816 63.657082 
L 693.092544 64.036835 
L 696.576928 63.247976 
L 700.061312 63.443588 
L 703.545697 63.172082 
L 707.030081 57.436432 
L 710.514465 57.157796 
L 713.998849 55.993216 
L 717.483234 54.305761 
L 720.967618 54.459116 
L 724.452002 49.589936 
L 727.936386 53.060949 
L 731.420771 49.570861 
L 734.905155 50.529852 
L 738.389539 50.077925 
L 741.873923 47.189423 
L 745.358308 46.95257 
L 748.842692 46.95257 
L 752.327076 46.948361 
L 755.81146 46.672595 
L 759.295845 46.656964 
L 762.780229 46.656964 
L 766.264613 46.667026 
L 769.748997 46.66098 
L 773.233382 46.607166 
L 776.717766 46.592096 
L 780.20215 46.586887 
L 783.686534 46.586887 
L 787.170919 46.586629 
L 790.655303 46.589661 
L 794.139687 46.589661 
L 797.624071 46.963918 
L 801.108456 46.967687 
L 804.59284 46.969574 
L 808.077224 46.970485 
L 811.561608 46.96671 
L 815.045993 46.983429 
L 818.530377 46.87961 
L 822.014761 47.015617 
L 825.499145 46.970485 
L 828.983529 46.833521 
L 832.467914 46.844795 
L 835.952298 46.842667 
L 835.952298 43.217597 
L 835.952298 43.217597 
L 832.467914 43.393278 
L 828.983529 42.753569 
L 825.499145 42.727596 
L 822.014761 42.984322 
L 818.530377 43.009338 
L 815.045993 43.365636 
L 811.561608 43.080497 
L 808.077224 42.727596 
L 804.59284 43.110484 
L 801.108456 42.763245 
L 797.624071 42.763572 
L 794.139687 43.107678 
L 790.655303 43.107678 
L 787.170919 43.107268 
L 783.686534 43.109123 
L 780.20215 43.109123 
L 776.717766 43.24733 
L 773.233382 43.390702 
L 769.748997 43.366346 
L 766.264613 43.471292 
L 762.780229 43.38485 
L 759.295845 43.38485 
L 755.81146 43.542044 
L 752.327076 43.457864 
L 748.842692 43.577703 
L 745.358308 43.577703 
L 741.873923 43.609343 
L 738.389539 43.971667 
L 734.905155 44.190918 
L 731.420771 44.369334 
L 727.936386 43.536627 
L 724.452002 44.882232 
L 720.967618 43.784753 
L 717.483234 42.941384 
L 713.998849 42.025448 
L 710.514465 42.85283 
L 707.030081 43.438997 
L 703.545697 45.559891 
L 700.061312 45.693575 
L 696.576928 45.244101 
L 693.092544 45.708805 
L 689.60816 47.74541 
L 686.123775 46.424916 
L 682.639391 46.162074 
L 679.155007 45.406809 
L 675.670623 44.638978 
L 672.186238 44.985181 
L 668.701854 43.629461 
L 665.21747 46.453875 
L 661.733086 46.601279 
L 658.248702 46.456728 
L 654.764317 45.537795 
L 651.279933 46.596516 
L 647.795549 47.015561 
L 644.311165 47.219438 
L 640.82678 50.55747 
L 637.342396 51.368355 
L 633.858012 51.689752 
L 630.373628 52.16395 
L 626.889243 51.92405 
L 623.404859 50.853791 
L 619.920475 48.664557 
L 616.436091 49.245737 
L 612.951706 50.066917 
L 609.467322 51.749037 
L 605.982938 56.225067 
L 602.498554 57.23335 
L 599.014169 62.83927 
L 595.529785 64.463446 
L 592.045401 60.850165 
L 588.561017 57.076852 
L 585.076632 62.888548 
L 581.592248 66.072024 
L 578.107864 68.741057 
L 574.62348 66.225722 
L 571.139095 68.615186 
L 567.654711 66.161573 
L 564.170327 74.753499 
L 560.685943 66.57244 
L 557.201558 71.288404 
L 553.717174 62.8575 
L 550.23279 80.391946 
L 546.748406 84.075641 
L 543.264021 76.505607 
L 539.779637 75.862652 
L 536.295253 85.636919 
L 532.810869 101.610534 
L 529.326484 94.804929 
L 525.8421 111.270781 
L 522.357716 128.430473 
L 518.873332 135.034392 
L 515.388947 127.873831 
L 511.904563 120.954677 
L 508.420179 113.956922 
L 504.935795 109.537049 
L 501.451411 118.783701 
L 497.967026 129.268288 
L 494.482642 155.313059 
L 490.998258 147.400298 
z
" clip-path="url(#pa1c37dbac4)" style="fill: #2c0493; fill-opacity: 0.1"/>
   </g>
   <g id="PolyCollection_4">
    <path d="M 490.998258 143.568593 
L 490.998258 200.381566 
L 494.482642 194.28725 
L 497.967026 228.514985 
L 501.451411 221.469989 
L 504.935795 233.402599 
L 508.420179 241.947206 
L 511.904563 239.617886 
L 515.388947 198.212406 
L 518.873332 192.820744 
L 522.357716 173.668698 
L 525.8421 178.793407 
L 529.326484 165.420052 
L 532.810869 157.258176 
L 536.295253 146.871131 
L 539.779637 141.676775 
L 543.264021 152.934856 
L 546.748406 100.851942 
L 550.23279 105.120493 
L 553.717174 102.669709 
L 557.201558 104.762495 
L 560.685943 98.443237 
L 564.170327 103.322253 
L 567.654711 97.397817 
L 571.139095 98.600068 
L 574.62348 90.148222 
L 578.107864 81.991274 
L 581.592248 79.961087 
L 585.076632 74.174894 
L 588.561017 85.293423 
L 592.045401 88.227249 
L 595.529785 87.264967 
L 599.014169 84.124957 
L 602.498554 84.650606 
L 605.982938 83.636617 
L 609.467322 80.82234 
L 612.951706 69.623958 
L 616.436091 69.598212 
L 619.920475 70.464369 
L 623.404859 66.598698 
L 626.889243 67.064011 
L 630.373628 66.459081 
L 633.858012 64.332641 
L 637.342396 64.527225 
L 640.82678 64.207182 
L 644.311165 64.401788 
L 647.795549 62.095392 
L 651.279933 62.150751 
L 654.764317 61.91662 
L 658.248702 62.135055 
L 661.733086 61.558161 
L 665.21747 61.547063 
L 668.701854 61.317859 
L 672.186238 61.323394 
L 675.670623 60.993123 
L 679.155007 61.438621 
L 682.639391 60.647371 
L 686.123775 60.390612 
L 689.60816 60.504368 
L 693.092544 60.384296 
L 696.576928 60.441689 
L 700.061312 50.478004 
L 703.545697 50.321713 
L 707.030081 49.707054 
L 710.514465 48.932083 
L 713.998849 48.781171 
L 717.483234 48.083285 
L 720.967618 49.070687 
L 724.452002 49.810291 
L 727.936386 49.066349 
L 731.420771 49.190631 
L 734.905155 49.12113 
L 738.389539 48.982356 
L 741.873923 49.211555 
L 745.358308 48.703525 
L 748.842692 48.784331 
L 752.327076 48.593661 
L 755.81146 48.583184 
L 759.295845 48.600262 
L 762.780229 47.754022 
L 766.264613 48.715741 
L 769.748997 48.572085 
L 773.233382 48.573266 
L 776.717766 48.571531 
L 780.20215 48.571531 
L 783.686534 48.638325 
L 787.170919 48.604498 
L 790.655303 48.604498 
L 794.139687 47.751309 
L 797.624071 46.509976 
L 801.108456 46.369578 
L 804.59284 44.938006 
L 808.077224 45.06925 
L 811.561608 45.023541 
L 815.045993 45.09578 
L 818.530377 45.150313 
L 822.014761 44.908854 
L 825.499145 44.720335 
L 828.983529 44.720335 
L 832.467914 44.720335 
L 835.952298 44.732723 
L 835.952298 42.452545 
L 835.952298 42.452545 
L 832.467914 42.464932 
L 828.983529 42.464932 
L 825.499145 42.464932 
L 822.014761 42.562058 
L 818.530377 42.741971 
L 815.045993 42.702446 
L 811.561608 43.12381 
L 808.077224 43.172159 
L 804.59284 43.115287 
L 801.108456 43.104766 
L 797.624071 43.058426 
L 794.139687 42.679865 
L 790.655303 42.871496 
L 787.170919 42.871496 
L 783.686534 42.507647 
L 780.20215 41.908987 
L 776.717766 41.908987 
L 773.233382 41.823778 
L 769.748997 41.869601 
L 766.264613 43.072314 
L 762.780229 43.23357 
L 759.295845 42.467908 
L 755.81146 42.781243 
L 752.327076 43.005275 
L 748.842692 43.402281 
L 745.358308 43.336883 
L 741.873923 46.626279 
L 738.389539 45.229502 
L 734.905155 46.021187 
L 731.420771 44.756484 
L 727.936386 46.200419 
L 724.452002 45.187985 
L 720.967618 45.419925 
L 717.483234 45.150742 
L 713.998849 45.228184 
L 710.514465 45.440443 
L 707.030081 44.793834 
L 703.545697 45.576271 
L 700.061312 46.226082 
L 696.576928 44.382006 
L 693.092544 43.543305 
L 689.60816 44.633057 
L 686.123775 45.541525 
L 682.639391 45.948366 
L 679.155007 47.439085 
L 675.670623 46.899743 
L 672.186238 47.810169 
L 668.701854 47.836944 
L 665.21747 47.810981 
L 661.733086 48.55665 
L 658.248702 48.978419 
L 654.764317 48.636247 
L 651.279933 49.357531 
L 647.795549 48.213704 
L 644.311165 49.466911 
L 640.82678 48.711741 
L 637.342396 49.450058 
L 633.858012 49.498679 
L 630.373628 50.982408 
L 626.889243 53.415122 
L 623.404859 52.838576 
L 619.920475 55.194805 
L 616.436091 54.575144 
L 612.951706 52.324847 
L 609.467322 49.858534 
L 605.982938 54.103159 
L 602.498554 57.833773 
L 599.014169 57.51609 
L 595.529785 55.236904 
L 592.045401 56.523069 
L 588.561017 56.75403 
L 585.076632 60.863937 
L 581.592248 60.397997 
L 578.107864 65.885441 
L 574.62348 63.425202 
L 571.139095 68.568066 
L 567.654711 74.083604 
L 564.170327 72.707335 
L 560.685943 69.919161 
L 557.201558 64.499247 
L 553.717174 67.782276 
L 550.23279 76.080516 
L 546.748406 74.59232 
L 543.264021 96.411319 
L 539.779637 84.826761 
L 536.295253 91.779945 
L 532.810869 92.189323 
L 529.326484 83.695764 
L 525.8421 117.786433 
L 522.357716 124.350681 
L 518.873332 144.866965 
L 515.388947 159.303023 
L 511.904563 160.041982 
L 508.420179 155.369748 
L 504.935795 157.580414 
L 501.451411 173.79362 
L 497.967026 165.157762 
L 494.482642 109.602202 
L 490.998258 143.568593 
z
" clip-path="url(#pa1c37dbac4)" style="fill: #e06461; fill-opacity: 0.1"/>
   </g>
   <g id="matplotlib.axis_3">
    <g id="xtick_7">
     <g id="line2d_17">
      <g>
       <use xlink:href="#m2db7f46cc1" x="487.513874" y="210.04" style="stroke: #000000; stroke-width: 0.8"/>
      </g>
     </g>
     <g id="text_14">
      <!-- 0 -->
      <g transform="translate(484.332624 224.638438) scale(0.1 -0.1)">
       <use xlink:href="#DejaVuSans-30"/>
      </g>
     </g>
    </g>
    <g id="xtick_8">
     <g id="line2d_18">
      <g>
       <use xlink:href="#m2db7f46cc1" x="557.201558" y="210.04" style="stroke: #000000; stroke-width: 0.8"/>
      </g>
     </g>
     <g id="text_15">
      <!-- 500 -->
      <g transform="translate(547.657808 224.638438) scale(0.1 -0.1)">
       <use xlink:href="#DejaVuSans-35"/>
       <use xlink:href="#DejaVuSans-30" x="63.623047"/>
       <use xlink:href="#DejaVuSans-30" x="127.246094"/>
      </g>
     </g>
    </g>
    <g id="xtick_9">
     <g id="line2d_19">
      <g>
       <use xlink:href="#m2db7f46cc1" x="626.889243" y="210.04" style="stroke: #000000; stroke-width: 0.8"/>
      </g>
     </g>
     <g id="text_16">
      <!-- 1000 -->
      <g transform="translate(614.164243 224.638438) scale(0.1 -0.1)">
       <use xlink:href="#DejaVuSans-31"/>
       <use xlink:href="#DejaVuSans-30" x="63.623047"/>
       <use xlink:href="#DejaVuSans-30" x="127.246094"/>
       <use xlink:href="#DejaVuSans-30" x="190.869141"/>
      </g>
     </g>
    </g>
    <g id="xtick_10">
     <g id="line2d_20">
      <g>
       <use xlink:href="#m2db7f46cc1" x="696.576928" y="210.04" style="stroke: #000000; stroke-width: 0.8"/>
      </g>
     </g>
     <g id="text_17">
      <!-- 1500 -->
      <g transform="translate(683.851928 224.638438) scale(0.1 -0.1)">
       <use xlink:href="#DejaVuSans-31"/>
       <use xlink:href="#DejaVuSans-35" x="63.623047"/>
       <use xlink:href="#DejaVuSans-30" x="127.246094"/>
       <use xlink:href="#DejaVuSans-30" x="190.869141"/>
      </g>
     </g>
    </g>
    <g id="xtick_11">
     <g id="line2d_21">
      <g>
       <use xlink:href="#m2db7f46cc1" x="766.264613" y="210.04" style="stroke: #000000; stroke-width: 0.8"/>
      </g>
     </g>
     <g id="text_18">
      <!-- 2000 -->
      <g transform="translate(753.539613 224.638438) scale(0.1 -0.1)">
       <use xlink:href="#DejaVuSans-32"/>
       <use xlink:href="#DejaVuSans-30" x="63.623047"/>
       <use xlink:href="#DejaVuSans-30" x="127.246094"/>
       <use xlink:href="#DejaVuSans-30" x="190.869141"/>
      </g>
     </g>
    </g>
    <g id="xtick_12">
     <g id="line2d_22">
      <g>
       <use xlink:href="#m2db7f46cc1" x="835.952298" y="210.04" style="stroke: #000000; stroke-width: 0.8"/>
      </g>
     </g>
     <g id="text_19">
      <!-- 2500 -->
      <g transform="translate(823.227298 224.638438) scale(0.1 -0.1)">
       <use xlink:href="#DejaVuSans-32"/>
       <use xlink:href="#DejaVuSans-35" x="63.623047"/>
       <use xlink:href="#DejaVuSans-30" x="127.246094"/>
       <use xlink:href="#DejaVuSans-30" x="190.869141"/>
      </g>
     </g>
    </g>
    <g id="text_20">
     <!-- Tuning Steps -->
     <g transform="translate(631.529184 238.316563) scale(0.1 -0.1)">
      <use xlink:href="#DejaVuSans-54"/>
      <use xlink:href="#DejaVuSans-75" x="45.958984"/>
      <use xlink:href="#DejaVuSans-6e" x="109.337891"/>
      <use xlink:href="#DejaVuSans-69" x="172.716797"/>
      <use xlink:href="#DejaVuSans-6e" x="200.5"/>
      <use xlink:href="#DejaVuSans-67" x="263.878906"/>
      <use xlink:href="#DejaVuSans-20" x="327.355469"/>
      <use xlink:href="#DejaVuSans-53" x="359.142578"/>
      <use xlink:href="#DejaVuSans-74" x="422.619141"/>
      <use xlink:href="#DejaVuSans-65" x="461.828125"/>
      <use xlink:href="#DejaVuSans-70" x="523.351562"/>
      <use xlink:href="#DejaVuSans-73" x="586.828125"/>
     </g>
    </g>
   </g>
   <g id="matplotlib.axis_4">
    <g id="ytick_6">
     <g id="line2d_23">
      <g>
       <use xlink:href="#mf57bc327bd" x="473.750556" y="210.04" style="stroke: #000000; stroke-width: 0.8"/>
      </g>
     </g>
     <g id="text_21">
      <!-- 65 -->
      <g transform="translate(454.025556 213.839219) scale(0.1 -0.1)">
       <defs>
        <path id="DejaVuSans-36" d="M 2113 2584 
Q 1688 2584 1439 2293 
Q 1191 2003 1191 1497 
Q 1191 994 1439 701 
Q 1688 409 2113 409 
Q 2538 409 2786 701 
Q 3034 994 3034 1497 
Q 3034 2003 2786 2293 
Q 2538 2584 2113 2584 
z
M 3366 4563 
L 3366 3988 
Q 3128 4100 2886 4159 
Q 2644 4219 2406 4219 
Q 1781 4219 1451 3797 
Q 1122 3375 1075 2522 
Q 1259 2794 1537 2939 
Q 1816 3084 2150 3084 
Q 2853 3084 3261 2657 
Q 3669 2231 3669 1497 
Q 3669 778 3244 343 
Q 2819 -91 2113 -91 
Q 1303 -91 875 529 
Q 447 1150 447 2328 
Q 447 3434 972 4092 
Q 1497 4750 2381 4750 
Q 2619 4750 2861 4703 
Q 3103 4656 3366 4563 
z
" transform="scale(0.015625)"/>
       </defs>
       <use xlink:href="#DejaVuSans-36"/>
       <use xlink:href="#DejaVuSans-35" x="63.623047"/>
      </g>
     </g>
    </g>
    <g id="ytick_7">
     <g id="line2d_24">
      <g>
       <use xlink:href="#mf57bc327bd" x="473.750556" y="188.526222" style="stroke: #000000; stroke-width: 0.8"/>
      </g>
     </g>
     <g id="text_22">
      <!-- 66 -->
      <g transform="translate(454.025556 192.325441) scale(0.1 -0.1)">
       <use xlink:href="#DejaVuSans-36"/>
       <use xlink:href="#DejaVuSans-36" x="63.623047"/>
      </g>
     </g>
    </g>
    <g id="ytick_8">
     <g id="line2d_25">
      <g>
       <use xlink:href="#mf57bc327bd" x="473.750556" y="167.012444" style="stroke: #000000; stroke-width: 0.8"/>
      </g>
     </g>
     <g id="text_23">
      <!-- 67 -->
      <g transform="translate(454.025556 170.811663) scale(0.1 -0.1)">
       <defs>
        <path id="DejaVuSans-37" d="M 525 4666 
L 3525 4666 
L 3525 4397 
L 1831 0 
L 1172 0 
L 2766 4134 
L 525 4134 
L 525 4666 
z
" transform="scale(0.015625)"/>
       </defs>
       <use xlink:href="#DejaVuSans-36"/>
       <use xlink:href="#DejaVuSans-37" x="63.623047"/>
      </g>
     </g>
    </g>
    <g id="ytick_9">
     <g id="line2d_26">
      <g>
       <use xlink:href="#mf57bc327bd" x="473.750556" y="145.498667" style="stroke: #000000; stroke-width: 0.8"/>
      </g>
     </g>
     <g id="text_24">
      <!-- 68 -->
      <g transform="translate(454.025556 149.297885) scale(0.1 -0.1)">
       <defs>
        <path id="DejaVuSans-38" d="M 2034 2216 
Q 1584 2216 1326 1975 
Q 1069 1734 1069 1313 
Q 1069 891 1326 650 
Q 1584 409 2034 409 
Q 2484 409 2743 651 
Q 3003 894 3003 1313 
Q 3003 1734 2745 1975 
Q 2488 2216 2034 2216 
z
M 1403 2484 
Q 997 2584 770 2862 
Q 544 3141 544 3541 
Q 544 4100 942 4425 
Q 1341 4750 2034 4750 
Q 2731 4750 3128 4425 
Q 3525 4100 3525 3541 
Q 3525 3141 3298 2862 
Q 3072 2584 2669 2484 
Q 3125 2378 3379 2068 
Q 3634 1759 3634 1313 
Q 3634 634 3220 271 
Q 2806 -91 2034 -91 
Q 1263 -91 848 271 
Q 434 634 434 1313 
Q 434 1759 690 2068 
Q 947 2378 1403 2484 
z
M 1172 3481 
Q 1172 3119 1398 2916 
Q 1625 2713 2034 2713 
Q 2441 2713 2670 2916 
Q 2900 3119 2900 3481 
Q 2900 3844 2670 4047 
Q 2441 4250 2034 4250 
Q 1625 4250 1398 4047 
Q 1172 3844 1172 3481 
z
" transform="scale(0.015625)"/>
       </defs>
       <use xlink:href="#DejaVuSans-36"/>
       <use xlink:href="#DejaVuSans-38" x="63.623047"/>
      </g>
     </g>
    </g>
    <g id="ytick_10">
     <g id="line2d_27">
      <g>
       <use xlink:href="#mf57bc327bd" x="473.750556" y="123.984889" style="stroke: #000000; stroke-width: 0.8"/>
      </g>
     </g>
     <g id="text_25">
      <!-- 69 -->
      <g transform="translate(454.025556 127.784108) scale(0.1 -0.1)">
       <defs>
        <path id="DejaVuSans-39" d="M 703 97 
L 703 672 
Q 941 559 1184 500 
Q 1428 441 1663 441 
Q 2288 441 2617 861 
Q 2947 1281 2994 2138 
Q 2813 1869 2534 1725 
Q 2256 1581 1919 1581 
Q 1219 1581 811 2004 
Q 403 2428 403 3163 
Q 403 3881 828 4315 
Q 1253 4750 1959 4750 
Q 2769 4750 3195 4129 
Q 3622 3509 3622 2328 
Q 3622 1225 3098 567 
Q 2575 -91 1691 -91 
Q 1453 -91 1209 -44 
Q 966 3 703 97 
z
M 1959 2075 
Q 2384 2075 2632 2365 
Q 2881 2656 2881 3163 
Q 2881 3666 2632 3958 
Q 2384 4250 1959 4250 
Q 1534 4250 1286 3958 
Q 1038 3666 1038 3163 
Q 1038 2656 1286 2365 
Q 1534 2075 1959 2075 
z
" transform="scale(0.015625)"/>
       </defs>
       <use xlink:href="#DejaVuSans-36"/>
       <use xlink:href="#DejaVuSans-39" x="63.623047"/>
      </g>
     </g>
    </g>
    <g id="ytick_11">
     <g id="line2d_28">
      <g>
       <use xlink:href="#mf57bc327bd" x="473.750556" y="102.471111" style="stroke: #000000; stroke-width: 0.8"/>
      </g>
     </g>
     <g id="text_26">
      <!-- 70 -->
      <g transform="translate(454.025556 106.27033) scale(0.1 -0.1)">
       <use xlink:href="#DejaVuSans-37"/>
       <use xlink:href="#DejaVuSans-30" x="63.623047"/>
      </g>
     </g>
    </g>
    <g id="ytick_12">
     <g id="line2d_29">
      <g>
       <use xlink:href="#mf57bc327bd" x="473.750556" y="80.957333" style="stroke: #000000; stroke-width: 0.8"/>
      </g>
     </g>
     <g id="text_27">
      <!-- 71 -->
      <g transform="translate(454.025556 84.756552) scale(0.1 -0.1)">
       <use xlink:href="#DejaVuSans-37"/>
       <use xlink:href="#DejaVuSans-31" x="63.623047"/>
      </g>
     </g>
    </g>
    <g id="ytick_13">
     <g id="line2d_30">
      <g>
       <use xlink:href="#mf57bc327bd" x="473.750556" y="59.443556" style="stroke: #000000; stroke-width: 0.8"/>
      </g>
     </g>
     <g id="text_28">
      <!-- 72 -->
      <g transform="translate(454.025556 63.242774) scale(0.1 -0.1)">
       <use xlink:href="#DejaVuSans-37"/>
       <use xlink:href="#DejaVuSans-32" x="63.623047"/>
      </g>
     </g>
    </g>
    <g id="ytick_14">
     <g id="line2d_31">
      <g>
       <use xlink:href="#mf57bc327bd" x="473.750556" y="37.929778" style="stroke: #000000; stroke-width: 0.8"/>
      </g>
     </g>
     <g id="text_29">
      <!-- 73 -->
      <g transform="translate(454.025556 41.728997) scale(0.1 -0.1)">
       <use xlink:href="#DejaVuSans-37"/>
       <use xlink:href="#DejaVuSans-33" x="63.623047"/>
      </g>
     </g>
    </g>
    <g id="ytick_15">
     <g id="line2d_32">
      <g>
       <use xlink:href="#mf57bc327bd" x="473.750556" y="16.416" style="stroke: #000000; stroke-width: 0.8"/>
      </g>
     </g>
     <g id="text_30">
      <!-- 74 -->
      <g transform="translate(454.025556 20.215219) scale(0.1 -0.1)">
       <use xlink:href="#DejaVuSans-37"/>
       <use xlink:href="#DejaVuSans-34" x="63.623047"/>
      </g>
     </g>
    </g>
    <g id="text_31">
     <!-- Accuracy [%] -->
     <g transform="translate(447.945868 146.297531) rotate(-90) scale(0.1 -0.1)">
      <defs>
       <path id="DejaVuSans-41" d="M 2188 4044 
L 1331 1722 
L 3047 1722 
L 2188 4044 
z
M 1831 4666 
L 2547 4666 
L 4325 0 
L 3669 0 
L 3244 1197 
L 1141 1197 
L 716 0 
L 50 0 
L 1831 4666 
z
" transform="scale(0.015625)"/>
       <path id="DejaVuSans-63" d="M 3122 3366 
L 3122 2828 
Q 2878 2963 2633 3030 
Q 2388 3097 2138 3097 
Q 1578 3097 1268 2742 
Q 959 2388 959 1747 
Q 959 1106 1268 751 
Q 1578 397 2138 397 
Q 2388 397 2633 464 
Q 2878 531 3122 666 
L 3122 134 
Q 2881 22 2623 -34 
Q 2366 -91 2075 -91 
Q 1284 -91 818 406 
Q 353 903 353 1747 
Q 353 2603 823 3093 
Q 1294 3584 2113 3584 
Q 2378 3584 2631 3529 
Q 2884 3475 3122 3366 
z
" transform="scale(0.015625)"/>
       <path id="DejaVuSans-72" d="M 2631 2963 
Q 2534 3019 2420 3045 
Q 2306 3072 2169 3072 
Q 1681 3072 1420 2755 
Q 1159 2438 1159 1844 
L 1159 0 
L 581 0 
L 581 3500 
L 1159 3500 
L 1159 2956 
Q 1341 3275 1631 3429 
Q 1922 3584 2338 3584 
Q 2397 3584 2469 3576 
Q 2541 3569 2628 3553 
L 2631 2963 
z
" transform="scale(0.015625)"/>
       <path id="DejaVuSans-61" d="M 2194 1759 
Q 1497 1759 1228 1600 
Q 959 1441 959 1056 
Q 959 750 1161 570 
Q 1363 391 1709 391 
Q 2188 391 2477 730 
Q 2766 1069 2766 1631 
L 2766 1759 
L 2194 1759 
z
M 3341 1997 
L 3341 0 
L 2766 0 
L 2766 531 
Q 2569 213 2275 61 
Q 1981 -91 1556 -91 
Q 1019 -91 701 211 
Q 384 513 384 1019 
Q 384 1609 779 1909 
Q 1175 2209 1959 2209 
L 2766 2209 
L 2766 2266 
Q 2766 2663 2505 2880 
Q 2244 3097 1772 3097 
Q 1472 3097 1187 3025 
Q 903 2953 641 2809 
L 641 3341 
Q 956 3463 1253 3523 
Q 1550 3584 1831 3584 
Q 2591 3584 2966 3190 
Q 3341 2797 3341 1997 
z
" transform="scale(0.015625)"/>
       <path id="DejaVuSans-79" d="M 2059 -325 
Q 1816 -950 1584 -1140 
Q 1353 -1331 966 -1331 
L 506 -1331 
L 506 -850 
L 844 -850 
Q 1081 -850 1212 -737 
Q 1344 -625 1503 -206 
L 1606 56 
L 191 3500 
L 800 3500 
L 1894 763 
L 2988 3500 
L 3597 3500 
L 2059 -325 
z
" transform="scale(0.015625)"/>
       <path id="DejaVuSans-5b" d="M 550 4863 
L 1875 4863 
L 1875 4416 
L 1125 4416 
L 1125 -397 
L 1875 -397 
L 1875 -844 
L 550 -844 
L 550 4863 
z
" transform="scale(0.015625)"/>
       <path id="DejaVuSans-25" d="M 4653 2053 
Q 4381 2053 4226 1822 
Q 4072 1591 4072 1178 
Q 4072 772 4226 539 
Q 4381 306 4653 306 
Q 4919 306 5073 539 
Q 5228 772 5228 1178 
Q 5228 1588 5073 1820 
Q 4919 2053 4653 2053 
z
M 4653 2450 
Q 5147 2450 5437 2106 
Q 5728 1763 5728 1178 
Q 5728 594 5436 251 
Q 5144 -91 4653 -91 
Q 4153 -91 3862 251 
Q 3572 594 3572 1178 
Q 3572 1766 3864 2108 
Q 4156 2450 4653 2450 
z
M 1428 4353 
Q 1159 4353 1004 4120 
Q 850 3888 850 3481 
Q 850 3069 1003 2837 
Q 1156 2606 1428 2606 
Q 1700 2606 1854 2837 
Q 2009 3069 2009 3481 
Q 2009 3884 1853 4118 
Q 1697 4353 1428 4353 
z
M 4250 4750 
L 4750 4750 
L 1831 -91 
L 1331 -91 
L 4250 4750 
z
M 1428 4750 
Q 1922 4750 2215 4408 
Q 2509 4066 2509 3481 
Q 2509 2891 2217 2550 
Q 1925 2209 1428 2209 
Q 931 2209 642 2551 
Q 353 2894 353 3481 
Q 353 4063 643 4406 
Q 934 4750 1428 4750 
z
" transform="scale(0.015625)"/>
       <path id="DejaVuSans-5d" d="M 1947 4863 
L 1947 -844 
L 622 -844 
L 622 -397 
L 1369 -397 
L 1369 4416 
L 622 4416 
L 622 4863 
L 1947 4863 
z
" transform="scale(0.015625)"/>
      </defs>
      <use xlink:href="#DejaVuSans-41"/>
      <use xlink:href="#DejaVuSans-63" x="66.658203"/>
      <use xlink:href="#DejaVuSans-63" x="121.638672"/>
      <use xlink:href="#DejaVuSans-75" x="176.619141"/>
      <use xlink:href="#DejaVuSans-72" x="239.998047"/>
      <use xlink:href="#DejaVuSans-61" x="281.111328"/>
      <use xlink:href="#DejaVuSans-63" x="342.390625"/>
      <use xlink:href="#DejaVuSans-79" x="397.371094"/>
      <use xlink:href="#DejaVuSans-20" x="456.550781"/>
      <use xlink:href="#DejaVuSans-5b" x="488.337891"/>
      <use xlink:href="#DejaVuSans-25" x="527.351562"/>
      <use xlink:href="#DejaVuSans-5d" x="622.371094"/>
     </g>
    </g>
   </g>
   <g id="line2d_33">
    <path d="M 490.998258 162.307637 
L 494.482642 172.206708 
L 497.967026 164.535793 
L 501.451411 174.591482 
L 504.935795 178.563886 
L 508.420179 172.43671 
L 511.904563 170.189983 
L 515.388947 148.900301 
L 518.873332 167.030837 
L 522.357716 139.369013 
L 525.8421 141.833829 
L 529.326484 130.885071 
L 532.810869 120.873134 
L 536.295253 107.99519 
L 539.779637 97.089144 
L 543.264021 87.662149 
L 546.748406 90.1409 
L 550.23279 86.58394 
L 553.717174 83.936716 
L 557.201558 85.843591 
L 560.685943 79.461069 
L 564.170327 79.310589 
L 567.654711 77.091641 
L 571.139095 79.411537 
L 574.62348 75.183798 
L 578.107864 76.895222 
L 581.592248 74.565325 
L 585.076632 70.474644 
L 588.561017 65.729194 
L 592.045401 69.085281 
L 595.529785 69.360096 
L 599.014169 69.172249 
L 602.498554 65.878657 
L 605.982938 61.609327 
L 609.467322 62.056645 
L 612.951706 60.88304 
L 616.436091 56.531415 
L 619.920475 57.313254 
L 623.404859 59.800475 
L 626.889243 60.194627 
L 630.373628 60.271904 
L 633.858012 59.875472 
L 637.342396 59.780235 
L 640.82678 59.093319 
L 644.311165 56.186632 
L 647.795549 56.221897 
L 651.279933 56.100564 
L 654.764317 55.725929 
L 658.248702 56.203061 
L 661.733086 56.233201 
L 665.21747 56.087679 
L 668.701854 53.567432 
L 672.186238 54.019926 
L 675.670623 54.199867 
L 679.155007 54.80305 
L 682.639391 55.605528 
L 686.123775 55.623247 
L 689.60816 55.701246 
L 693.092544 54.87282 
L 696.576928 54.246038 
L 700.061312 54.568581 
L 703.545697 54.365987 
L 707.030081 50.437714 
L 710.514465 50.005313 
L 713.998849 49.009332 
L 717.483234 48.623572 
L 720.967618 49.121935 
L 724.452002 47.236084 
L 727.936386 48.298788 
L 731.420771 46.970097 
L 734.905155 47.360385 
L 738.389539 47.024796 
L 741.873923 45.399383 
L 745.358308 45.265137 
L 748.842692 45.265137 
L 752.327076 45.203112 
L 755.81146 45.107319 
L 759.295845 45.020907 
L 762.780229 45.020907 
L 766.264613 45.069159 
L 769.748997 45.013663 
L 773.233382 44.998934 
L 776.717766 44.919713 
L 780.20215 44.848005 
L 783.686534 44.848005 
L 787.170919 44.846948 
L 790.655303 44.848669 
L 794.139687 44.848669 
L 797.624071 44.863745 
L 801.108456 44.865466 
L 804.59284 45.040029 
L 808.077224 44.849041 
L 811.561608 45.023603 
L 815.045993 45.174532 
L 818.530377 44.944474 
L 822.014761 44.999969 
L 825.499145 44.849041 
L 828.983529 44.793545 
L 832.467914 45.119036 
L 835.952298 45.030132 
" clip-path="url(#pa1c37dbac4)" style="fill: none; stroke: #2c0493; stroke-width: 1.5; stroke-linecap: square"/>
   </g>
   <g id="line2d_34">
    <path d="M 490.998258 171.975079 
L 494.482642 151.944726 
L 497.967026 196.836373 
L 501.451411 197.631805 
L 504.935795 195.491506 
L 508.420179 198.658477 
L 511.904563 199.829934 
L 515.388947 178.757715 
L 518.873332 168.843855 
L 522.357716 149.00969 
L 525.8421 148.28992 
L 529.326484 124.557908 
L 532.810869 124.723749 
L 536.295253 119.325538 
L 539.779637 113.251768 
L 543.264021 124.673087 
L 546.748406 87.722131 
L 550.23279 90.600505 
L 553.717174 85.225992 
L 557.201558 84.630871 
L 560.685943 84.181199 
L 564.170327 88.014794 
L 567.654711 85.74071 
L 571.139095 83.584067 
L 574.62348 76.786712 
L 578.107864 73.938357 
L 581.592248 70.179542 
L 585.076632 67.519415 
L 588.561017 71.023727 
L 592.045401 72.375159 
L 595.529785 71.250935 
L 599.014169 70.820524 
L 602.498554 71.24219 
L 605.982938 68.869888 
L 609.467322 65.340437 
L 612.951706 60.974402 
L 616.436091 62.086678 
L 619.920475 62.829587 
L 623.404859 59.718637 
L 626.889243 60.239566 
L 630.373628 58.720744 
L 633.858012 56.91566 
L 637.342396 56.988641 
L 640.82678 56.459461 
L 644.311165 56.93435 
L 647.795549 55.154548 
L 651.279933 55.754141 
L 654.764317 55.276433 
L 658.248702 55.556737 
L 661.733086 55.057405 
L 665.21747 54.679022 
L 668.701854 54.577401 
L 672.186238 54.566781 
L 675.670623 53.946433 
L 679.155007 54.438853 
L 682.639391 53.297868 
L 686.123775 52.966068 
L 689.60816 52.568713 
L 693.092544 51.963801 
L 696.576928 52.411848 
L 700.061312 48.352043 
L 703.545697 47.948992 
L 707.030081 47.250444 
L 710.514465 47.186263 
L 713.998849 47.004677 
L 717.483234 46.617013 
L 720.967618 47.245306 
L 724.452002 47.499138 
L 727.936386 47.633384 
L 731.420771 46.973558 
L 734.905155 47.571158 
L 738.389539 47.105929 
L 741.873923 47.918917 
L 745.358308 46.020204 
L 748.842692 46.093306 
L 752.327076 45.799468 
L 755.81146 45.682213 
L 759.295845 45.534085 
L 762.780229 45.493796 
L 766.264613 45.894028 
L 769.748997 45.220843 
L 773.233382 45.198522 
L 776.717766 45.240259 
L 780.20215 45.240259 
L 783.686534 45.572986 
L 787.170919 45.737997 
L 790.655303 45.737997 
L 794.139687 45.215587 
L 797.624071 44.784201 
L 801.108456 44.737172 
L 804.59284 44.026646 
L 808.077224 44.120705 
L 811.561608 44.073675 
L 815.045993 43.899113 
L 818.530377 43.946142 
L 822.014761 43.735456 
L 825.499145 43.592634 
L 828.983529 43.592634 
L 832.467914 43.592634 
L 835.952298 43.592634 
" clip-path="url(#pa1c37dbac4)" style="fill: none; stroke: #e06461; stroke-width: 1.5; stroke-linecap: square"/>
   </g>
   <g id="line2d_35">
    <path d="M 473.750556 71.236827 
L 853.2 71.236827 
" clip-path="url(#pa1c37dbac4)" style="fill: none; stroke-dasharray: 1.5,2.475; stroke-dashoffset: 0; stroke: #000000; stroke-width: 1.5"/>
   </g>
   <g id="line2d_36">
    <path d="M 473.750556 36.639857 
L 853.2 36.639857 
" clip-path="url(#pa1c37dbac4)" style="fill: none; stroke: #000000; stroke-width: 1.5; stroke-linecap: square"/>
   </g>
   <g id="line2d_37">
    <path d="M 473.750556 75.083496 
L 853.2 75.083496 
" clip-path="url(#pa1c37dbac4)" style="fill: none; stroke-dasharray: 5.55,2.4; stroke-dashoffset: 0; stroke: #000000; stroke-width: 1.5"/>
   </g>
   <g id="patch_8">
    <path d="M 473.750556 210.04 
L 473.750556 16.416 
" style="fill: none; stroke: #000000; stroke-width: 0.8; stroke-linejoin: miter; stroke-linecap: square"/>
   </g>
   <g id="patch_9">
    <path d="M 853.2 210.04 
L 853.2 16.416 
" style="fill: none; stroke: #000000; stroke-width: 0.8; stroke-linejoin: miter; stroke-linecap: square"/>
   </g>
   <g id="patch_10">
    <path d="M 473.750556 210.04 
L 853.2 210.04 
" style="fill: none; stroke: #000000; stroke-width: 0.8; stroke-linejoin: miter; stroke-linecap: square"/>
   </g>
   <g id="patch_11">
    <path d="M 473.750556 16.416 
L 853.2 16.416 
" style="fill: none; stroke: #000000; stroke-width: 0.8; stroke-linejoin: miter; stroke-linecap: square"/>
   </g>
   <g id="legend_1">
    <g id="patch_12">
     <path d="M 710.107812 205.04 
L 846.2 205.04 
Q 848.2 205.04 848.2 203.04 
L 848.2 130.649375 
Q 848.2 128.649375 846.2 128.649375 
L 710.107812 128.649375 
Q 708.107812 128.649375 708.107812 130.649375 
L 708.107812 203.04 
Q 708.107812 205.04 710.107812 205.04 
z
" style="fill: #ffffff; opacity: 0.8; stroke: #cccccc; stroke-linejoin: miter"/>
    </g>
    <g id="line2d_38">
     <path d="M 712.107812 136.747813 
L 722.107812 136.747813 
L 732.107812 136.747813 
" style="fill: none; stroke: #2c0493; stroke-width: 1.5; stroke-linecap: square"/>
    </g>
    <g id="text_32">
     <!-- 500 Samples (ours) -->
     <g transform="translate(740.107812 140.247813) scale(0.1 -0.1)">
      <defs>
       <path id="DejaVuSans-6d" d="M 3328 2828 
Q 3544 3216 3844 3400 
Q 4144 3584 4550 3584 
Q 5097 3584 5394 3201 
Q 5691 2819 5691 2113 
L 5691 0 
L 5113 0 
L 5113 2094 
Q 5113 2597 4934 2840 
Q 4756 3084 4391 3084 
Q 3944 3084 3684 2787 
Q 3425 2491 3425 1978 
L 3425 0 
L 2847 0 
L 2847 2094 
Q 2847 2600 2669 2842 
Q 2491 3084 2119 3084 
Q 1678 3084 1418 2786 
Q 1159 2488 1159 1978 
L 1159 0 
L 581 0 
L 581 3500 
L 1159 3500 
L 1159 2956 
Q 1356 3278 1631 3431 
Q 1906 3584 2284 3584 
Q 2666 3584 2933 3390 
Q 3200 3197 3328 2828 
z
" transform="scale(0.015625)"/>
       <path id="DejaVuSans-6c" d="M 603 4863 
L 1178 4863 
L 1178 0 
L 603 0 
L 603 4863 
z
" transform="scale(0.015625)"/>
       <path id="DejaVuSans-28" d="M 1984 4856 
Q 1566 4138 1362 3434 
Q 1159 2731 1159 2009 
Q 1159 1288 1364 580 
Q 1569 -128 1984 -844 
L 1484 -844 
Q 1016 -109 783 600 
Q 550 1309 550 2009 
Q 550 2706 781 3412 
Q 1013 4119 1484 4856 
L 1984 4856 
z
" transform="scale(0.015625)"/>
       <path id="DejaVuSans-29" d="M 513 4856 
L 1013 4856 
Q 1481 4119 1714 3412 
Q 1947 2706 1947 2009 
Q 1947 1309 1714 600 
Q 1481 -109 1013 -844 
L 513 -844 
Q 928 -128 1133 580 
Q 1338 1288 1338 2009 
Q 1338 2731 1133 3434 
Q 928 4138 513 4856 
z
" transform="scale(0.015625)"/>
      </defs>
      <use xlink:href="#DejaVuSans-35"/>
      <use xlink:href="#DejaVuSans-30" x="63.623047"/>
      <use xlink:href="#DejaVuSans-30" x="127.246094"/>
      <use xlink:href="#DejaVuSans-20" x="190.869141"/>
      <use xlink:href="#DejaVuSans-53" x="222.65625"/>
      <use xlink:href="#DejaVuSans-61" x="286.132812"/>
      <use xlink:href="#DejaVuSans-6d" x="347.412109"/>
      <use xlink:href="#DejaVuSans-70" x="444.824219"/>
      <use xlink:href="#DejaVuSans-6c" x="508.300781"/>
      <use xlink:href="#DejaVuSans-65" x="536.083984"/>
      <use xlink:href="#DejaVuSans-73" x="597.607422"/>
      <use xlink:href="#DejaVuSans-20" x="649.707031"/>
      <use xlink:href="#DejaVuSans-28" x="681.494141"/>
      <use xlink:href="#DejaVuSans-6f" x="720.507812"/>
      <use xlink:href="#DejaVuSans-75" x="781.689453"/>
      <use xlink:href="#DejaVuSans-72" x="845.068359"/>
      <use xlink:href="#DejaVuSans-73" x="886.181641"/>
      <use xlink:href="#DejaVuSans-29" x="938.28125"/>
     </g>
    </g>
    <g id="line2d_39">
     <path d="M 712.107812 151.425938 
L 722.107812 151.425938 
L 732.107812 151.425938 
" style="fill: none; stroke: #e06461; stroke-width: 1.5; stroke-linecap: square"/>
    </g>
    <g id="text_33">
     <!-- 1000 Samples (ours) -->
     <g transform="translate(740.107812 154.925938) scale(0.1 -0.1)">
      <use xlink:href="#DejaVuSans-31"/>
      <use xlink:href="#DejaVuSans-30" x="63.623047"/>
      <use xlink:href="#DejaVuSans-30" x="127.246094"/>
      <use xlink:href="#DejaVuSans-30" x="190.869141"/>
      <use xlink:href="#DejaVuSans-20" x="254.492188"/>
      <use xlink:href="#DejaVuSans-53" x="286.279297"/>
      <use xlink:href="#DejaVuSans-61" x="349.755859"/>
      <use xlink:href="#DejaVuSans-6d" x="411.035156"/>
      <use xlink:href="#DejaVuSans-70" x="508.447266"/>
      <use xlink:href="#DejaVuSans-6c" x="571.923828"/>
      <use xlink:href="#DejaVuSans-65" x="599.707031"/>
      <use xlink:href="#DejaVuSans-73" x="661.230469"/>
      <use xlink:href="#DejaVuSans-20" x="713.330078"/>
      <use xlink:href="#DejaVuSans-28" x="745.117188"/>
      <use xlink:href="#DejaVuSans-6f" x="784.130859"/>
      <use xlink:href="#DejaVuSans-75" x="845.3125"/>
      <use xlink:href="#DejaVuSans-72" x="908.691406"/>
      <use xlink:href="#DejaVuSans-73" x="949.804688"/>
      <use xlink:href="#DejaVuSans-29" x="1001.904297"/>
     </g>
    </g>
    <g id="line2d_40">
     <path d="M 712.107812 166.104062 
L 722.107812 166.104062 
L 732.107812 166.104062 
" style="fill: none; stroke-dasharray: 1.5,2.475; stroke-dashoffset: 0; stroke: #000000; stroke-width: 1.5"/>
    </g>
    <g id="text_34">
     <!-- Batch Tuning -->
     <g transform="translate(740.107812 169.604062) scale(0.1 -0.1)">
      <defs>
       <path id="DejaVuSans-68" d="M 3513 2113 
L 3513 0 
L 2938 0 
L 2938 2094 
Q 2938 2591 2744 2837 
Q 2550 3084 2163 3084 
Q 1697 3084 1428 2787 
Q 1159 2491 1159 1978 
L 1159 0 
L 581 0 
L 581 4863 
L 1159 4863 
L 1159 2956 
Q 1366 3272 1645 3428 
Q 1925 3584 2291 3584 
Q 2894 3584 3203 3211 
Q 3513 2838 3513 2113 
z
" transform="scale(0.015625)"/>
      </defs>
      <use xlink:href="#DejaVuSans-42"/>
      <use xlink:href="#DejaVuSans-61" x="68.603516"/>
      <use xlink:href="#DejaVuSans-74" x="129.882812"/>
      <use xlink:href="#DejaVuSans-63" x="169.091797"/>
      <use xlink:href="#DejaVuSans-68" x="224.072266"/>
      <use xlink:href="#DejaVuSans-20" x="287.451172"/>
      <use xlink:href="#DejaVuSans-54" x="319.238281"/>
      <use xlink:href="#DejaVuSans-75" x="365.197266"/>
      <use xlink:href="#DejaVuSans-6e" x="428.576172"/>
      <use xlink:href="#DejaVuSans-69" x="491.955078"/>
      <use xlink:href="#DejaVuSans-6e" x="519.738281"/>
      <use xlink:href="#DejaVuSans-67" x="583.117188"/>
     </g>
    </g>
    <g id="line2d_41">
     <path d="M 712.107812 180.782188 
L 722.107812 180.782188 
L 732.107812 180.782188 
" style="fill: none; stroke: #000000; stroke-width: 1.5; stroke-linecap: square"/>
    </g>
    <g id="text_35">
     <!-- Best LR -->
     <g transform="translate(740.107812 184.282188) scale(0.1 -0.1)">
      <use xlink:href="#DejaVuSans-42"/>
      <use xlink:href="#DejaVuSans-65" x="68.603516"/>
      <use xlink:href="#DejaVuSans-73" x="130.126953"/>
      <use xlink:href="#DejaVuSans-74" x="182.226562"/>
      <use xlink:href="#DejaVuSans-20" x="221.435547"/>
      <use xlink:href="#DejaVuSans-4c" x="253.222656"/>
      <use xlink:href="#DejaVuSans-52" x="308.935547"/>
     </g>
    </g>
    <g id="line2d_42">
     <path d="M 712.107812 195.460313 
L 722.107812 195.460313 
L 732.107812 195.460313 
" style="fill: none; stroke-dasharray: 5.55,2.4; stroke-dashoffset: 0; stroke: #000000; stroke-width: 1.5"/>
    </g>
    <g id="text_36">
     <!-- DoG -->
     <g transform="translate(740.107812 198.960313) scale(0.1 -0.1)">
      <defs>
       <path id="DejaVuSans-44" d="M 1259 4147 
L 1259 519 
L 2022 519 
Q 2988 519 3436 956 
Q 3884 1394 3884 2338 
Q 3884 3275 3436 3711 
Q 2988 4147 2022 4147 
L 1259 4147 
z
M 628 4666 
L 1925 4666 
Q 3281 4666 3915 4102 
Q 4550 3538 4550 2338 
Q 4550 1131 3912 565 
Q 3275 0 1925 0 
L 628 0 
L 628 4666 
z
" transform="scale(0.015625)"/>
       <path id="DejaVuSans-47" d="M 3809 666 
L 3809 1919 
L 2778 1919 
L 2778 2438 
L 4434 2438 
L 4434 434 
Q 4069 175 3628 42 
Q 3188 -91 2688 -91 
Q 1594 -91 976 548 
Q 359 1188 359 2328 
Q 359 3472 976 4111 
Q 1594 4750 2688 4750 
Q 3144 4750 3555 4637 
Q 3966 4525 4313 4306 
L 4313 3634 
Q 3963 3931 3569 4081 
Q 3175 4231 2741 4231 
Q 1884 4231 1454 3753 
Q 1025 3275 1025 2328 
Q 1025 1384 1454 906 
Q 1884 428 2741 428 
Q 3075 428 3337 486 
Q 3600 544 3809 666 
z
" transform="scale(0.015625)"/>
      </defs>
      <use xlink:href="#DejaVuSans-44"/>
      <use xlink:href="#DejaVuSans-6f" x="77.001953"/>
      <use xlink:href="#DejaVuSans-47" x="138.183594"/>
     </g>
    </g>
   </g>
  </g>
 </g>
 <defs>
  <clipPath id="pd23953e6cc">
   <rect x="49.641112" y="16.416" width="379.449444" height="193.624"/>
  </clipPath>
  <clipPath id="pa1c37dbac4">
   <rect x="473.750556" y="16.416" width="379.449444" height="193.624"/>
  </clipPath>
 </defs>
</svg>
